<svg width="67" height="106" viewBox="0 0 67 106" fill="none" xmlns="http://www.w3.org/2000/svg">
<path d="M17.4769 89.0066V91.727H19.3603V93.1022H17.4769V95.7927H15.8178V89.0066H17.4769ZM17.4769 96.3757V99.9182H10.3022V101.039H17.8955V102.355H8.65799V98.7075H15.8178V97.6611H8.64304V96.3757H17.4769ZM10.5563 89.455C12.619 89.455 14.1287 90.6957 14.1437 92.4894C14.1287 94.2531 12.619 95.5087 10.5563 95.5087C8.49357 95.5087 6.95399 94.2531 6.96894 92.4894C6.95399 90.6957 8.49357 89.455 10.5563 89.455ZM10.5563 90.8003C9.42031 90.8003 8.58325 91.458 8.5982 92.4894C8.58325 93.5058 9.42031 94.1934 10.5563 94.1934C11.6923 94.1934 12.5294 93.5058 12.5294 92.4894C12.5294 91.458 11.6923 90.8003 10.5563 90.8003ZM31.3033 89.0216V97.0334H29.6291V89.0216H31.3033ZM26.9685 89.8138V93.73H22.3946V95.135C24.7115 95.1276 26.3482 95.0678 28.2839 94.7464L28.4931 96.0917C26.3557 96.4355 24.5321 96.4952 21.9163 96.4952H20.7654V92.4595H25.3243V91.1291H20.7355V89.8138H26.9685ZM31.3033 97.6611V102.355H22.3348V97.6611H31.3033ZM23.979 98.9915V101.009H29.674V98.9915H23.979ZM44.5167 89.0066V102.534H42.8426V89.0066H44.5167ZM37.2374 89.9931C39.2702 89.9931 40.75 91.8466 40.7649 94.7614C40.75 97.706 39.2702 99.5445 37.2374 99.5445C35.1896 99.5445 33.7098 97.706 33.7098 94.7614C33.7098 91.8466 35.1896 89.9931 37.2374 89.9931ZM37.2374 91.4879C36.0864 91.4879 35.3091 92.6986 35.3091 94.7614C35.3091 96.839 36.0864 98.0498 37.2374 98.0498C38.3734 98.0498 39.1506 96.839 39.1506 94.7614C39.1506 92.6986 38.3734 91.4879 37.2374 91.4879ZM57.5209 90.3668H59.479V97.4369C59.479 99.7538 57.7153 101.353 55.0845 101.353C52.4388 101.353 50.69 99.7538 50.69 97.4369V90.3668H52.6332V97.2725C52.6332 98.6327 53.5898 99.6192 55.0845 99.6192C56.5793 99.6192 57.5209 98.6327 57.5209 97.2725V90.3668Z" fill="black"/>
<path fill-rule="evenodd" clip-rule="evenodd" d="M17.5985 64.8912C18.0263 67.1018 19.6522 71.2092 22.7327 69.9542C25.8133 68.6991 27.6293 67.91 28.1522 67.6723C29.2456 67.0067 30.8192 65.0766 28.6514 63.2511C25.9416 60.9692 25.5138 59.757 24.8007 57.2612C24.2302 55.2645 22.4237 48.8705 21.5918 45.923C27.1301 46.9451 40.9308 51.2284 51.8268 60.1848C52.7063 61.0643 55.4214 62.6807 56.9047 62.6807C59.1866 62.6807 60.7554 60.3988 60.7554 60.3988C60.7554 60.3988 66.873 55.2503 66.873 31.5186C66.873 7.78695 62.2529 3.99331 60.5978 1.85404C60.1565 1.28356 58.8294 0 56.6045 0C54.3797 0 51.399 2.37697 50.1867 3.56546C42.6993 8.48578 43.1271 7.99646 36.4241 11.6947C28.1522 16.2585 17.7648 17.1855 12.5355 17.542C10.3962 17.4944 5.30476 18.6972 2.05307 23.8885C-1.19863 29.0798 0.12772 35.2266 1.19736 37.6512C1.93422 39.8617 5.13362 44.5396 12.0363 45.5665L17.5985 64.8912ZM18.6681 41.7158C16.7855 36.4104 17.4558 25.8139 18.0263 21.1788H13.8904C10.6577 21.0529 4.19234 22.9162 4.19234 31.376C4.19234 39.8358 10.6577 41.7942 13.8904 41.7158H18.6681ZM23.0179 20.3944C21.0783 32.8878 22.5901 40.2896 23.5171 42.4289C28.2473 43.2846 40.0466 46.6647 49.4023 53.3392C47.3343 48.1099 44.3536 31.8181 48.9745 8.48578C37.2227 17.0999 26.7736 20.0141 23.0179 20.3944ZM51.8268 31.0195C51.8268 11.5663 55.2972 5.41949 57.0324 4.77771C58.8151 4.77771 61.7388 6.20389 61.7388 31.0195C61.7388 50.8719 58.8389 56.4055 57.3889 56.6907C55.5349 56.2391 51.8268 50.4726 51.8268 31.0195Z" fill="#009D72"/>
<path d="M52.4316 39.5887V25.3422C52.5822 25.1124 53.0792 24.6528 53.8624 24.6528C54.8413 24.6528 58.6817 26.2613 58.6817 32.3889C58.6817 38.5164 54.6907 40.2781 53.8624 40.2781C53.3011 40.2781 52.6826 39.8801 52.4316 39.5887Z" fill="#009D72"/>
</svg>
