<svg width="28" height="28" viewBox="0 0 28 28" fill="none" xmlns="http://www.w3.org/2000/svg">
<path d="M4.66602 22.1668V19.8335H6.99935V11.6668C6.99935 10.0529 7.48546 8.61891 8.45768 7.36475C9.4299 6.11058 10.6938 5.28905 12.2493 4.90016V4.0835C12.2493 3.59738 12.4195 3.18419 12.7598 2.84391C13.1 2.50363 13.5132 2.3335 13.9993 2.3335C14.4855 2.3335 14.8987 2.50363 15.2389 2.84391C15.5792 3.18419 15.7493 3.59738 15.7493 4.0835V4.90016C17.3049 5.28905 18.5688 6.11058 19.541 7.36475C20.5132 8.61891 20.9993 10.0529 20.9993 11.6668V19.8335H23.3327V22.1668H4.66602ZM13.9993 25.6668C13.3577 25.6668 12.8084 25.4384 12.3514 24.9814C11.8945 24.5245 11.666 23.9752 11.666 23.3335H16.3327C16.3327 23.9752 16.1042 24.5245 15.6473 24.9814C15.1903 25.4384 14.641 25.6668 13.9993 25.6668ZM9.33268 19.8335H18.666V11.6668C18.666 10.3835 18.2091 9.28488 17.2952 8.371C16.3813 7.45711 15.2827 7.00016 13.9993 7.00016C12.716 7.00016 11.6174 7.45711 10.7035 8.371C9.78963 9.28488 9.33268 10.3835 9.33268 11.6668V19.8335Z" fill="#009D72"/>
<path d="M9.33268 19.8335H18.666V11.6668C18.666 10.3835 18.2091 9.28488 17.2952 8.371C16.3813 7.45711 15.2827 7.00016 13.9993 7.00016C12.716 7.00016 11.6174 7.45711 10.7035 8.371C9.78963 9.28488 9.33268 10.3835 9.33268 11.6668V19.8335Z" fill="#009D72"/>
</svg>
