<svg width="25" height="32" viewBox="0 0 25 32" fill="none" xmlns="http://www.w3.org/2000/svg">
<path d="M0 26.5625V23.4375H3.125V12.5C3.125 10.3385 3.77604 8.41797 5.07813 6.73828C6.38021 5.05859 8.07292 3.95833 10.1563 3.4375V2.34375C10.1563 1.69271 10.3841 1.13932 10.8398 0.683594C11.2956 0.227865 11.849 0 12.5 0C13.151 0 13.7044 0.227865 14.1602 0.683594C14.6159 1.13932 14.8438 1.69271 14.8438 2.34375V3.4375C16.9271 3.95833 18.6198 5.05859 19.9219 6.73828C21.224 8.41797 21.875 10.3385 21.875 12.5V23.4375H25V26.5625H0ZM12.5 31.25C11.6406 31.25 10.9049 30.944 10.293 30.332C9.68099 29.7201 9.375 28.9844 9.375 28.125H15.625C15.625 28.9844 15.319 29.7201 14.707 30.332C14.0951 30.944 13.3594 31.25 12.5 31.25ZM6.25 23.4375H18.75V12.5C18.75 10.7813 18.138 9.3099 16.9141 8.08594C15.6901 6.86198 14.2188 6.25 12.5 6.25C10.7812 6.25 9.3099 6.86198 8.08594 8.08594C6.86198 9.3099 6.25 10.7813 6.25 12.5V23.4375Z" fill="#DEE3E7"/>
<path d="M9 15.5217L11.7391 18.2609L16 14" stroke="#DEE3E7" stroke-width="1.52174" stroke-linecap="round"/>
</svg>
