<svg width="121" height="86" viewBox="0 0 121 86" fill="none" xmlns="http://www.w3.org/2000/svg">
<path d="M23.7241 59.2981V70.6069H21.3811V59.2981H23.7241ZM32.9811 63.2344C32.7937 61.9848 31.8253 61.2194 30.5132 61.2194C28.7481 61.2194 27.5923 62.5783 27.5923 64.9525C27.5923 67.3892 28.7638 68.6857 30.4976 68.6857C31.794 68.6857 32.7468 67.9672 32.9811 66.7488L35.3553 66.7644C35.0898 68.8575 33.3404 70.7631 30.4663 70.7631C27.4361 70.7631 25.2024 68.6388 25.2024 64.9525C25.2024 61.2663 27.4829 59.142 30.4663 59.142C33.0748 59.142 35.0429 60.6415 35.3553 63.2344H32.9811ZM36.3494 61.235V59.2981H45.612V61.235H42.1444V70.6069H39.8171V61.235H36.3494ZM59.2895 64.2028V65.8116H56.4154V67.5298C57.2667 67.9672 57.7353 68.6154 57.7431 69.4511C57.7275 71.1224 55.8687 72.0596 52.7916 72.0596C49.6676 72.0596 47.8089 71.1224 47.8089 69.4511C47.8089 68.5842 48.3087 67.9203 49.2303 67.4673V65.8116H46.325V64.2028H59.2895ZM52.7916 66.8582C53.3773 66.8582 53.924 66.8894 54.4161 66.9519V65.8116H51.214V66.9519C51.6982 66.8894 52.2215 66.8582 52.7916 66.8582ZM52.7916 68.3577C50.8235 68.3733 49.8238 68.7169 49.8394 69.4511C49.8238 70.2008 50.8235 70.5445 52.7916 70.5445C54.7128 70.5445 55.7281 70.2008 55.7438 69.4511C55.7281 68.7169 54.7128 68.3733 52.7916 68.3577ZM52.8072 58.0486C55.9468 58.0486 57.9618 59.0951 57.9774 60.8133C57.9618 62.5002 55.9468 63.5155 52.8072 63.5155C49.6364 63.5155 47.6214 62.5002 47.6214 60.8133C47.6214 59.0951 49.6364 58.0486 52.8072 58.0486ZM52.8072 59.5949C50.8235 59.5949 49.6832 60.001 49.6989 60.8133C49.6832 61.5943 50.8235 62.0004 52.8072 62.0004C54.7753 62.0004 55.9156 61.5943 55.9156 60.8133C55.9156 60.001 54.7753 59.5949 52.8072 59.5949ZM71.2175 57.8299V61.2506H73.1387V62.9063H71.2175V66.1553H69.2181V57.8299H71.2175ZM63.8918 66.702V67.7797H69.2181V66.702H71.2175V71.8878H61.908V66.702H63.8918ZM63.8918 70.3258H69.2181V69.3105H63.8918V70.3258ZM68.3747 59.0795V60.6415H59.9399V59.0795H63.1732V57.7362H65.157V59.0795H68.3747ZM64.1573 61.0476C66.2191 61.0476 67.6561 62.0472 67.6561 63.5624C67.6561 65.0775 66.2191 66.0772 64.1573 66.0772C62.0642 66.0772 60.6272 65.0775 60.6272 63.5624C60.6272 62.0472 62.0642 61.0476 64.1573 61.0476ZM64.1573 62.5158C63.2045 62.5002 62.5641 62.8907 62.5797 63.5624C62.5641 64.2496 63.2045 64.6245 64.1573 64.6245C65.1101 64.6245 65.7661 64.2496 65.7661 63.5624C65.7661 62.8907 65.1101 62.5002 64.1573 62.5158ZM81.9896 59.0951V60.6727H73.5549V59.0951H76.7882V57.7518H78.7719V59.0951H81.9896ZM77.7722 61.1257C79.8341 61.1257 81.2711 62.1878 81.2711 63.7498C81.2711 65.3118 79.8341 66.3739 77.7722 66.3739C75.7104 66.3739 74.2422 65.3118 74.2422 63.7498C74.2422 62.1878 75.7104 61.1257 77.7722 61.1257ZM77.7722 62.6252C76.8194 62.6252 76.179 63.0157 76.1946 63.7498C76.179 64.4683 76.8194 64.8432 77.7722 64.8432C78.7251 64.8432 79.3811 64.4683 79.3811 63.7498C79.3811 63.0157 78.7251 62.6252 77.7722 62.6252ZM84.8324 57.8299V61.5162H86.7537V63.1406H84.8324V66.7488H82.8331V57.8299H84.8324ZM84.8324 67.3424V72.044H82.8331V68.9356H75.2575V67.3424H84.8324ZM100.166 66.0303V67.5923H94.6049V72.044H92.6368V67.5923H87.1542V66.0303H100.166ZM90.6531 58.3766V60.0167H96.6199V58.3766H98.6192V64.6558H88.685V58.3766H90.6531ZM90.6531 63.0625H96.6199V61.5787H90.6531V63.0625Z" fill="black"/>
<path d="M28.1389 0.26709H18.7764V42.3676H18.7836C19.2927 48.7658 24.4235 50.4772 28.1389 49.9934V0.26709Z" fill="#009D72"/>
<path d="M33.4536 0.26709H42.8161V42.3676H42.8089C42.2998 48.7658 37.169 50.4772 33.4572 49.9934V0.26709H33.4536Z" fill="#009D72"/>
<path d="M57.5046 0.0759127C53.7928 -0.404308 48.6512 1.30715 48.1421 7.70167L48.1565 42.2451C48.6656 48.636 53.7928 50.351 57.5082 49.8708V0.0759127H57.5046Z" fill="#009D72"/>
<path d="M62.6716 0.0759127C66.3834 -0.404308 71.5214 1.30715 72.0305 7.70167L72.0196 42.2487C71.5105 48.6396 66.3834 50.351 62.668 49.8708V0.0759127H62.6716Z" fill="#009D72"/>
<path d="M87.2092 0.26709H77.8467V42.3676H77.8539C78.363 48.7658 83.4938 50.4772 87.2092 49.9934V0.26709Z" fill="#009D72"/>
<path d="M92.5239 0.26709H101.886V42.3676H101.879C101.366 48.7658 96.2393 50.4772 92.5275 49.9934V0.26709H92.5239Z" fill="#009D72"/>
</svg>
