<svg width="32" height="17" viewBox="0 0 32 17" fill="none" xmlns="http://www.w3.org/2000/svg">
<path d="M3.57657 0.0869141H0V13.8162H0.00275863C0.197242 15.9026 2.15725 16.4607 3.57657 16.303V0.0869141Z" fill="#009D72"/>
<path d="M5.60693 0.0869141H9.1835V13.8162H9.18074C8.98626 15.9026 7.02625 16.4607 5.60831 16.303V0.0869141H5.60693Z" fill="#009D72"/>
<path d="M14.7946 0.0247556C13.3766 -0.131847 11.4125 0.426271 11.218 2.51156L11.2235 13.7764C11.418 15.8605 13.3766 16.4198 14.796 16.2632V0.0247556H14.7946Z" fill="#009D72"/>
<path d="M16.7685 0.0247556C18.1864 -0.131847 20.1492 0.426271 20.3437 2.51156L20.3395 13.7775C20.145 15.8617 18.1864 16.4198 16.7671 16.2632V0.0247556H16.7685Z" fill="#009D72"/>
<path d="M26.142 0.0869141H22.5654V13.8162H22.5682C22.7627 15.9026 24.7227 16.4607 26.142 16.303V0.0869141Z" fill="#009D72"/>
<path d="M28.4233 0H31.9999V13.7292H31.9971C31.8013 15.8157 29.8427 16.3738 28.4247 16.216V0H28.4233Z" fill="#009D72"/>
</svg>
