<svg width="31" height="31" viewBox="0 0 31 31" fill="none" xmlns="http://www.w3.org/2000/svg">
<path d="M24.6209 8.81067H22.6976L21.8023 24.5828C21.7844 24.9108 21.5122 25.1675 21.1836 25.1675H9.44512C9.11652 25.1675 8.84434 24.9102 8.82635 24.5822L7.94533 8.81067H6.02085C5.67799 8.81067 5.40085 8.53291 5.40085 8.19067C5.40085 7.84843 5.67799 7.57067 6.02085 7.57067H8.34027C8.37437 7.57067 8.40414 7.58492 8.437 7.58988C8.46924 7.58492 8.499 7.57067 8.53186 7.57067H11.7844V5.94812C11.7844 5.60588 12.0615 5.32812 12.4044 5.32812H18.238C18.5808 5.32812 18.858 5.60588 18.858 5.94812V7.57067H22.1117C22.1402 7.57067 22.1657 7.58368 22.1936 7.5874C22.2221 7.58306 22.2475 7.57067 22.2773 7.57067H24.6202C24.9631 7.57067 25.2402 7.84843 25.2402 8.19067C25.2402 8.53291 24.9637 8.81067 24.6209 8.81067ZM17.618 6.56812H13.0244V7.57067H17.618V6.56812ZM9.18719 8.81067L10.0316 23.9281H20.5977L21.4558 8.81067H9.18719Z" fill="#231F20"/>
<path d="M18.3926 22.7653C18.3802 22.7653 18.3691 22.7653 18.3567 22.7647C18.0144 22.7455 17.7534 22.4522 17.7732 22.1106L18.4255 10.6189C18.4447 10.2766 18.746 10.0193 19.0796 10.0348C19.4218 10.0541 19.6828 10.3473 19.663 10.6889L19.0108 22.1806C18.9922 22.5105 18.7187 22.7653 18.3926 22.7653Z" fill="#231F20"/>
<path d="M12.3101 22.7646C12.2977 22.7652 12.2866 22.7652 12.2742 22.7652C11.948 22.7652 11.6746 22.5104 11.656 22.1805L11.0038 10.6888C10.9846 10.3472 11.2456 10.054 11.5872 10.0347C11.9239 10.0205 12.2215 10.2765 12.2413 10.6188L12.8935 22.1105C12.9128 22.4521 12.6517 22.7454 12.3101 22.7646Z" fill="#231F20"/>
<path d="M15.3214 22.7659C14.9785 22.7659 14.7014 22.4881 14.7014 22.1459V10.6542C14.7014 10.3119 14.9785 10.0342 15.3214 10.0342C15.6643 10.0342 15.9414 10.3119 15.9414 10.6542V22.1459C15.9414 22.4881 15.6643 22.7659 15.3214 22.7659Z" fill="#231F20"/>
</svg>
