<svg width="22" height="23" viewBox="0 0 22 23" fill="none" xmlns="http://www.w3.org/2000/svg">
<path d="M8.35291 10.4149H3.18486C2.45658 10.3029 1 9.70904 1 8.23005C1 6.38132 2.17647 5.75107 3.18486 5.75107C3.18486 3.48216 6.58821 1.49742 9.27728 3.47222C10.4958 1.83357 13.8319 -0.645412 17.4285 2.54785C17.9747 3.1921 18.9747 4.3561 18.605 5.66702C19.4033 5.65301 20.9999 6.10398 20.9999 8.01995C20.9999 10.4149 19.8655 10.4569 18.605 10.4569L8.35291 10.4149Z" fill="#E6E9ED"/>
<path d="M18.605 5.66702C18.9747 4.3561 17.9747 3.1921 17.4285 2.54785C13.8319 -0.645412 10.4958 1.83357 9.27728 3.47222C6.58821 1.49742 3.18486 3.48216 3.18486 5.75107C2.17647 5.75107 1 6.38132 1 8.23005C1 9.70904 2.45658 10.3029 3.18486 10.4149H8.35291L18.605 10.4569C19.8655 10.4569 20.9999 10.4149 20.9999 8.01995C20.9999 6.10398 19.4033 5.65301 18.605 5.66702ZM18.605 5.66702C16.7899 5.66702 16.3361 6.6334 16.3361 7.41771" stroke="black" stroke-width="0.756299"/>
<path d="M8.6887 8.44077C8.6887 8.32475 8.78275 8.23069 8.89878 8.23069H18.0584C18.1744 8.23069 18.2685 8.32475 18.2685 8.44077V9.95337C18.2685 10.0694 18.1744 10.1635 18.0584 10.1635H8.89878C8.78275 10.1635 8.6887 10.0694 8.6887 9.95337V8.44077Z" fill="#A2A2A2" stroke="black" stroke-width="0.756299"/>
<rect x="16.9668" y="8.94482" width="0.5042" height="0.5042" fill="black"/>
<rect x="16.293" y="8.94482" width="0.5042" height="0.5042" fill="black"/>
<rect x="9.48633" y="8.94482" width="6.0504" height="0.5042" fill="black"/>
<path d="M8.6887 10.7088C8.6887 10.5928 8.78275 10.4988 8.89878 10.4988H18.0584C18.1744 10.4988 18.2685 10.5928 18.2685 10.7088V12.2214C18.2685 12.3375 18.1744 12.4315 18.0584 12.4315H8.89878C8.78275 12.4315 8.6887 12.3375 8.6887 12.2214V10.7088Z" fill="#A2A2A2" stroke="black" stroke-width="0.756299"/>
<rect x="16.9668" y="11.2129" width="0.5042" height="0.5042" fill="black"/>
<rect x="16.293" y="11.2129" width="0.5042" height="0.5042" fill="black"/>
<rect x="9.48633" y="11.2129" width="6.0504" height="0.5042" fill="black"/>
<path d="M8.6887 12.9779C8.6887 12.8619 8.78275 12.7678 8.89878 12.7678H18.0584C18.1744 12.7678 18.2685 12.8619 18.2685 12.9779V14.4905C18.2685 14.6065 18.1744 14.7006 18.0584 14.7006H8.89878C8.78275 14.7006 8.6887 14.6065 8.6887 14.4905V12.9779Z" fill="#A2A2A2" stroke="black" stroke-width="0.756299"/>
<rect x="16.9668" y="13.4819" width="0.5042" height="0.5042" fill="black"/>
<rect x="16.293" y="13.4819" width="0.5042" height="0.5042" fill="black"/>
<rect x="9.48633" y="13.4819" width="6.0504" height="0.5042" fill="black"/>
<path d="M6.46187 16.3394H1.50391V19.0284H6.46187V16.3394Z" fill="#47D7F4"/>
<path d="M1.50391 20.2049H6.46187V19.0284H1.50391V20.2049Z" fill="#CCD1D9"/>
<path d="M1.37815 16.9279C1.37815 16.5334 1.69794 16.2136 2.09243 16.2136H5.87393C6.26842 16.2136 6.58821 16.5334 6.58821 16.9279V19.0287V19.6169C6.58821 20.0114 6.26842 20.3312 5.87393 20.3312H2.09243C1.69795 20.3312 1.37815 20.0114 1.37815 19.6169V19.0287V16.9279Z" stroke="black" stroke-width="0.756299"/>
<path d="M13.4365 16.3389H8.47852V19.0279H13.4365V16.3389Z" fill="#47D7F4"/>
<path d="M8.47852 20.2044H13.4365V19.0279H8.47852V20.2044Z" fill="#CCD1D9"/>
<path d="M8.35276 16.9269C8.35276 16.5324 8.67255 16.2126 9.06704 16.2126H12.8485C13.243 16.2126 13.5628 16.5324 13.5628 16.9269V19.0277V19.616C13.5628 20.0105 13.243 20.3303 12.8485 20.3303H9.06704C8.67256 20.3303 8.35276 20.0105 8.35276 19.616V19.0277V16.9269Z" stroke="black" stroke-width="0.756299"/>
<path d="M20.497 16.3398H15.5391V19.0289H20.497V16.3398Z" fill="#47D7F4"/>
<path d="M15.5391 20.2054H20.497V19.0289H15.5391V20.2054Z" fill="#CCD1D9"/>
<path d="M15.4133 16.9279C15.4133 16.5334 15.7331 16.2136 16.1276 16.2136H19.9091C20.3036 16.2136 20.6234 16.5334 20.6234 16.9279V19.0287V19.6169C20.6234 20.0114 20.3036 20.3312 19.9091 20.3312H16.1276C15.7331 20.3312 15.4133 20.0114 15.4133 19.6169V19.0287V16.9279Z" stroke="black" stroke-width="0.756299"/>
<path d="M3.31055 20.3306V21.6751H4.78113V20.3306H3.31055Z" fill="#CCD1D9" stroke="black" stroke-width="0.756299"/>
<path d="M10.2441 20.3306V21.6751H11.7147V20.3306H10.2441Z" fill="#CCD1D9" stroke="black" stroke-width="0.756299"/>
<path d="M17.3027 20.3306V21.6751H18.7733V20.3306H17.3027Z" fill="#CCD1D9" stroke="black" stroke-width="0.756299"/>
<path d="M11 16.2973V14.7427" stroke="black" stroke-width="0.756299"/>
<path d="M4.02344 16.2974L4.02344 14.0285C4.02344 13.8892 4.13631 13.7764 4.27554 13.7764L8.77132 13.7764" stroke="black" stroke-width="0.756299"/>
<path d="M18.0586 16.2973V14.7427" stroke="black" stroke-width="0.756299"/>
</svg>
