<svg width="24" height="25" viewBox="0 0 24 25" fill="none" xmlns="http://www.w3.org/2000/svg">
<path d="M3.03333 19.8333V17.5H5.36667V9.33333C5.36667 8.69167 5.44931 8.05972 5.61458 7.4375C5.77986 6.81528 6.02778 6.22222 6.35833 5.65833L8.10833 7.40833C7.97222 7.71944 7.87014 8.03542 7.80208 8.35625C7.73403 8.67708 7.7 9.00278 7.7 9.33333V17.5H14.9333L0 2.56667L1.63333 0.933333L23.1 22.4L21.4667 24.0333L17.2083 19.8333H3.03333ZM19.3667 15.3417L17.0333 13.0083V9.33333C17.0333 8.05 16.5764 6.95139 15.6625 6.0375C14.7486 5.12361 13.65 4.66667 12.3667 4.66667C11.8611 4.66667 11.375 4.74444 10.9083 4.9C10.4417 5.05556 10.0139 5.28889 9.625 5.6L7.93333 3.90833C8.32222 3.59722 8.74028 3.325 9.1875 3.09167C9.63472 2.85833 10.1111 2.68333 10.6167 2.56667V1.75C10.6167 1.26389 10.7868 0.850694 11.1271 0.510417C11.4674 0.170139 11.8806 0 12.3667 0C12.8528 0 13.266 0.170139 13.6062 0.510417C13.9465 0.850694 14.1167 1.26389 14.1167 1.75V2.56667C15.6722 2.95556 16.9361 3.77708 17.9083 5.03125C18.8806 6.28542 19.3667 7.71944 19.3667 9.33333V15.3417ZM12.3667 23.3333C11.725 23.3333 11.1757 23.1049 10.7188 22.6479C10.2618 22.191 10.0333 21.6417 10.0333 21H14.7C14.7 21.6417 14.4715 22.191 14.0146 22.6479C13.5576 23.1049 13.0083 23.3333 12.3667 23.3333Z" fill="#666666"/>
</svg>
