<svg width="192" height="116" viewBox="0 0 192 116" fill="none" xmlns="http://www.w3.org/2000/svg">
<path d="M21.6001 0.616699H0V97.7464H0.0166603C1.19121 112.507 13.0284 116.456 21.6001 115.34V0.616699Z" fill="#CCEBE3"/>
<path d="M33.8618 0.616699H55.4619V97.7464H55.4453C54.2707 112.507 42.4335 116.456 33.8701 115.34V0.616699H33.8618Z" fill="#CCEBE3"/>
<path d="M89.3496 0.175137C80.7862 -0.932774 68.9241 3.01572 67.7495 17.7684L67.7828 97.4631C68.9574 112.207 80.7862 116.164 89.3579 115.056V0.175137H89.3496Z" fill="#CCEBE3"/>
<path d="M101.27 0.175137C109.833 -0.932774 121.687 3.01572 122.862 17.7684L122.837 97.4714C121.662 112.216 109.833 116.164 101.261 115.056V0.175137H101.27Z" fill="#CCEBE3"/>
<path d="M157.881 0.616699H136.281V97.7464H136.298C137.472 112.507 149.31 116.456 157.881 115.34V0.616699Z" fill="#CCEBE3"/>
<path d="M170.144 0.616699H191.744V97.7464H191.727C190.544 112.507 178.716 116.456 170.152 115.34V0.616699H170.144Z" fill="#CCEBE3"/>
</svg>
