<svg width="19" height="21" viewBox="0 0 19 21" fill="none" xmlns="http://www.w3.org/2000/svg">
<path d="M10.8006 2.79821L10.4085 2.71153V2.31V1.575C10.4085 1.00611 9.90018 0.5 9.35022 0.5C8.80026 0.5 8.29189 1.00611 8.29189 1.575V2.31V2.71153L7.89983 2.79821C4.7997 3.48362 2.57802 6.11935 2.57802 9.45V14.175V14.3605L2.45704 14.5011L0.500244 16.7755V17.35H18.2002V16.7755L16.2434 14.5011L16.1224 14.3605V14.175V9.45C16.1224 6.11935 13.9007 3.48362 10.8006 2.79821ZM9.35022 20.5C10.0416 20.5 10.6393 20.0389 10.8485 19.4H7.8519C8.0611 20.0389 8.65882 20.5 9.35022 20.5Z" stroke="black"/>
</svg>
