<svg width="77" height="28" viewBox="0 0 77 28" fill="none" xmlns="http://www.w3.org/2000/svg">
<rect y="0.640137" width="76.6" height="26.64" rx="13.32" fill="#009D72"/>
<path d="M23.7249 12.9799V14.5007H18.5274V15.49C20.8678 15.6672 22.2484 16.5089 22.2631 17.8968C22.2484 19.4472 20.4913 20.3184 17.5824 20.3184C14.6293 20.3184 12.8722 19.4472 12.8722 17.8968C12.8722 16.5015 14.2676 15.6598 16.6522 15.49V14.5007H11.4695V12.9799H23.7249ZM17.5824 16.878C15.722 16.8928 14.777 17.2176 14.7917 17.8968C14.777 18.5465 15.722 18.9009 17.5824 18.9009C19.3986 18.9009 20.3584 18.5465 20.3731 17.8968C20.3584 17.2176 19.3986 16.8928 17.5824 16.878ZM22.6175 7.45754V8.9341H18.9704C19.2879 9.8791 20.6537 10.7872 23.2081 11.0013L22.5437 12.4779C20.0114 12.2342 18.2986 11.2745 17.5824 9.9677C16.8737 11.2745 15.1904 12.2342 12.636 12.4779L12.0158 11.0013C14.5038 10.7872 15.877 9.87172 16.224 8.9341H12.5917V7.45754H22.6175ZM36.5128 17.2029V18.7532H24.213V17.2029H26.9594V13.9101C25.9185 13.29 25.2909 12.3376 25.2909 11.1489C25.2909 8.9784 27.4172 7.53137 30.3408 7.53137C33.2496 7.53137 35.3906 8.9784 35.4054 11.1489C35.398 12.308 34.7852 13.253 33.7812 13.8806V17.2029H36.5128ZM30.3408 9.0227C28.4212 9.0227 27.1514 9.79051 27.1514 11.1489C27.1514 12.4631 28.4212 13.2752 30.3408 13.2752C32.2455 13.2752 33.5302 12.4631 33.5449 11.1489C33.5302 9.79051 32.2455 9.0227 30.3408 9.0227ZM28.8199 17.2029H31.8764V14.5893C31.3965 14.6853 30.8797 14.737 30.3408 14.737C29.8018 14.737 29.2924 14.6927 28.8199 14.5893V17.2029ZM46.1712 15.2538C49.1096 15.2538 50.9553 16.184 50.97 17.7935C50.9553 19.3734 49.1096 20.3184 46.1712 20.3184C43.2624 20.3184 41.3872 19.3734 41.3872 17.7935C41.3872 16.184 43.2624 15.2538 46.1712 15.2538ZM46.1712 16.6565C44.3255 16.6565 43.2624 17.0404 43.2624 17.7935C43.2624 18.517 44.3255 18.8861 46.1712 18.8861C48.0169 18.8861 49.0948 18.517 49.0948 17.7935C49.0948 17.0404 48.0169 16.6565 46.1712 16.6565ZM50.8962 7.48707V8.57973C50.8962 9.64285 50.8962 10.7946 50.5123 12.1825L48.6666 12.0054C48.9619 10.7872 48.9988 9.8791 49.021 8.96363H41.52V7.48707H50.8962ZM52.3432 12.8765V14.3974H40.1468V12.8765H44.7242V10.5288H46.5847V12.8765H52.3432ZM58.0731 10.5436C58.0731 12.7141 59.1806 15.0323 61.4397 15.9773L60.4209 17.4539C58.8336 16.782 57.7409 15.4457 57.1429 13.8068C56.5301 15.586 55.4153 17.0626 53.8354 17.7935L52.7575 16.3021C54.9871 15.3129 56.1389 12.8175 56.1389 10.5436V9.71668H53.2891V8.18106H60.8786V9.71668H58.0731V10.5436ZM64.1123 6.88168V20.3184H62.2075V6.88168H64.1123Z" fill="white"/>
</svg>
