<svg width="21" height="23" viewBox="0 0 21 23" fill="none" xmlns="http://www.w3.org/2000/svg">
<path fill-rule="evenodd" clip-rule="evenodd" d="M5.5264 20.8034C5.66076 21.4976 6.17132 22.7875 7.1387 22.3933C8.10608 21.9992 8.67636 21.7514 8.84058 21.6768C9.18394 21.4678 9.67808 20.8617 8.99733 20.2884C8.14639 19.5718 8.01203 19.1911 7.7881 18.4074C7.60896 17.7804 7.04167 15.7725 6.78042 14.8469C8.51961 15.1679 12.8534 16.5129 16.2751 19.3255C16.5513 19.6017 17.4039 20.1093 17.8697 20.1093C18.5862 20.1093 19.0789 19.3927 19.0789 19.3927C19.0789 19.3927 21 17.7759 21 10.3235C21 2.8711 19.5491 1.67979 19.0294 1.008C18.8908 0.828856 18.4741 0.425781 17.7754 0.425781C17.0767 0.425781 16.1407 1.17222 15.76 1.54543C13.4088 3.09055 13.5431 2.93689 11.4382 4.09824C8.84058 5.5314 5.57865 5.82249 3.9365 5.93445C3.26471 5.91952 1.66584 6.29722 0.64472 7.92743C-0.376403 9.55765 0.0401077 11.4879 0.376003 12.2493C0.607398 12.9435 1.6121 14.4125 3.77975 14.7349L5.5264 20.8034ZM5.8623 13.5257C5.27112 11.8597 5.48162 8.53206 5.66076 7.07652H4.36196C3.34681 7.03699 1.31651 7.6221 1.31651 10.2787C1.31651 12.9353 3.34681 13.5503 4.36196 13.5257H5.8623ZM7.22828 6.83019C6.61918 10.7535 7.09392 13.0779 7.38503 13.7496C8.87043 14.0184 12.5757 15.0798 15.5137 17.1758C14.8643 15.5336 13.9283 10.4176 15.3793 3.09055C11.689 5.79563 8.40764 6.71076 7.22828 6.83019ZM16.2751 10.1668C16.2751 4.05793 17.3649 2.12765 17.9098 1.92612C18.4696 1.92612 19.3877 2.37398 19.3877 10.1668C19.3877 16.401 18.4771 18.1387 18.0217 18.2283C17.4395 18.0864 16.2751 16.2756 16.2751 10.1668Z" fill="#009D72"/>
<path d="M16.4648 12.8576V8.38383C16.5121 8.31168 16.6682 8.16736 16.9141 8.16736C17.2215 8.16736 18.4276 8.67247 18.4276 10.5967C18.4276 12.5209 17.1743 13.0741 16.9141 13.0741C16.7379 13.0741 16.5437 12.9491 16.4648 12.8576Z" fill="#009D72"/>
</svg>
