<svg width="61" height="27" viewBox="0 0 61 27" fill="none" xmlns="http://www.w3.org/2000/svg">
<rect y="0.280273" width="60.6" height="26.64" rx="13.32" fill="#EEEEEE"/>
<path d="M23.6768 12.9301V14.4067H18.4646V15.5731H22.1855V19.9585H20.3103V17.0792H12.7798V15.5731H16.6041V14.4067H11.4214V12.9301H23.6768ZM14.847 6.84666V8.07221H20.2364V6.84666H22.1117V12.0442H12.9865V6.84666H14.847ZM14.847 10.5676H20.2364V9.46018H14.847V10.5676ZM31.0457 7.79166V16.6806H24.5931V7.79166H31.0457ZM26.4536 9.26822V15.1892H29.1705V9.26822H26.4536ZM34.7666 6.52182V11.5864H36.7452V13.1516H34.7666V19.9585H32.8766V6.52182H34.7666ZM47.9089 7.70307V9.26822C47.9089 11.2173 47.9089 13.0925 47.2887 16.0013L45.4135 15.8242C45.6793 14.702 45.8269 13.7201 45.9303 12.812L38.1341 13.1959L37.8978 11.6898L46.0189 11.3945C46.0558 10.6636 46.0558 9.96221 46.0632 9.26822V9.20916H38.3112V7.70307H47.9089ZM49.164 16.8135V18.3491H36.9085V16.8135H49.164Z" fill="#666666"/>
</svg>
