<svg width="21" height="21" viewBox="0 0 21 21" fill="none" xmlns="http://www.w3.org/2000/svg">
<rect x="3.52812" y="4.07695" width="13.3174" height="13.3174" rx="0.889872" fill="#D9D9D9" stroke="black" stroke-width="0.552334"/>
<rect x="18.5332" y="6.13281" width="1.84111" height="1.84111" fill="black"/>
<rect y="6.13281" width="1.84111" height="1.84111" fill="black"/>
<rect x="18.5332" y="9.81494" width="1.84111" height="1.84111" fill="black"/>
<rect x="9.26758" y="0.547852" width="1.84111" height="1.84111" fill="black"/>
<rect x="9.26758" y="19.082" width="1.84111" height="1.84111" fill="black"/>
<rect y="9.81494" width="1.84111" height="1.84111" fill="black"/>
<rect x="18.5332" y="13.4971" width="1.84111" height="1.84111" fill="black"/>
<rect x="5.58398" y="0.547852" width="1.84111" height="1.84111" fill="black"/>
<rect x="5.58398" y="19.082" width="1.84111" height="1.84111" fill="black"/>
<rect x="12.9492" y="0.547852" width="1.84111" height="1.84111" fill="black"/>
<rect x="12.9492" y="19.082" width="1.84111" height="1.84111" fill="black"/>
<rect y="13.4971" width="1.84111" height="1.84111" fill="black"/>
<path d="M7.4954 13.5479H6.16433L8.22666 7.59913H9.81244L11.8666 13.5479H10.5437L10.1 12.1757H7.9473L7.4954 13.5479ZM8.25953 11.2144H9.78779L9.04009 8.93841H8.99901L8.25953 11.2144ZM13.7525 7.59913V13.5479H12.52V7.59913H13.7525Z" fill="black"/>
</svg>
