<svg width="48" height="27" viewBox="0 0 48 27" fill="none" xmlns="http://www.w3.org/2000/svg">
<rect width="47.6" height="26.64" rx="13.32" fill="#009D72"/>
<path d="M22.5371 6.25631V16.0607H20.6619V11.2471H18.4618V9.72623H20.6619V6.25631H22.5371ZM22.862 17.9359V19.442H13.6187V15.2043H15.5087V17.9359H22.862ZM16.2913 8.88459C16.2913 10.435 17.2363 12.1035 19.3773 12.7975L18.4471 14.2888C16.9557 13.8089 15.9369 12.827 15.3463 11.6015C14.7556 12.9599 13.6851 14.0378 12.0978 14.5694L11.1381 13.0337C13.3529 12.3397 14.357 10.5826 14.3717 8.86982V8.66311H11.6696V7.15701H18.9639V8.66311H16.2913V8.88459ZM28.3109 10.3316C28.3109 12.3693 29.0492 14.4069 30.954 15.4405L29.9204 16.8137C28.7096 16.1936 27.9049 15.1009 27.4397 13.7868C26.9672 15.219 26.1625 16.4298 24.9444 17.1386L23.8665 15.7211C25.8008 14.5989 26.5243 12.4136 26.539 10.3316V10.0215H24.3685V8.51545H26.539V6.69928H28.2961V8.51545H30.4224V10.0215H28.3109V10.3316ZM35.738 6.24154V19.6783H33.9514V6.24154H35.738ZM32.9916 6.46303V19.0581H31.2197V12.8713H29.6398V11.3357H31.2197V6.46303H32.9916Z" fill="white"/>
</svg>
