<svg width="25" height="32" viewBox="0 0 25 32" fill="none" xmlns="http://www.w3.org/2000/svg">
<path d="M15.6045 28.1445C15.5999 28.9903 15.2971 29.7147 14.6934 30.3184C14.085 30.9267 13.3542 31.2305 12.5 31.2305C11.6458 31.2305 10.915 30.9267 10.3066 30.3184C9.70294 29.7147 9.40011 28.9903 9.39551 28.1445H15.6045ZM12.5 0.0195312C13.1459 0.0195312 13.6945 0.245241 14.1465 0.697266C14.5985 1.14929 14.8242 1.69783 14.8242 2.34375V3.45312L14.8389 3.45605C16.9179 3.97581 18.6069 5.07395 19.9062 6.75C21.2056 8.4262 21.8555 10.3428 21.8555 12.5V23.457H24.9805V26.543H0.0195312V23.457H3.14453V12.5C3.14453 10.3428 3.79437 8.4262 5.09375 6.75C6.39309 5.07395 8.0821 3.97581 10.1611 3.45605L10.1758 3.45312V2.34375C10.1758 1.69783 10.4015 1.14929 10.8535 0.697266C11.3055 0.245241 11.8541 0.0195312 12.5 0.0195312ZM18.7305 23.418H6.26953V12.5C6.26953 10.7865 6.87928 9.31993 8.09961 8.09961C9.31993 6.87929 10.7865 6.26953 12.5 6.26953C14.2135 6.26953 15.6801 6.87929 16.9004 8.09961C18.1207 9.31993 18.7305 10.7865 18.7305 12.5V23.418ZM18.7695 12.5C18.7695 10.776 18.1553 9.29986 16.9277 8.07227L16.6943 7.84961C15.5143 6.77065 14.1162 6.23047 12.5 6.23047C10.8838 6.23047 9.48567 6.77065 8.30566 7.84961L8.07227 8.07227C6.84467 9.29986 6.23047 10.776 6.23047 12.5V23.457H18.7695V12.5Z" fill="#009D72" stroke="#009D72" stroke-width="0.0390625"/>
<path d="M9 15.5217L11.7391 18.2609L16 14" stroke="white" stroke-width="1.52174" stroke-linecap="round"/>
</svg>
