<svg width="61" height="27" viewBox="0 0 61 27" fill="none" xmlns="http://www.w3.org/2000/svg">
<rect y="0.280273" width="60.6" height="26.64" rx="13.32" fill="#009D72"/>
<path d="M23.6771 12.9301V14.4067H18.4648V15.5731H22.1857V19.9585H20.3105V17.0792H12.78V15.5731H16.6043V14.4067H11.4216V12.9301H23.6771ZM14.8472 6.84666V8.07221H20.2367V6.84666H22.1119V12.0442H12.9868V6.84666H14.8472ZM14.8472 10.5676H20.2367V9.46018H14.8472V10.5676ZM31.046 7.79166V16.6806H24.5934V7.79166H31.046ZM26.4538 9.26822V15.1892H29.1707V9.26822H26.4538ZM34.7669 6.52182V11.5864H36.7455V13.1516H34.7669V19.9585H32.8769V6.52182H34.7669ZM47.9091 7.70307V9.26822C47.9091 11.2173 47.9091 13.0925 47.289 16.0013L45.4138 15.8242C45.6795 14.702 45.8272 13.7201 45.9305 12.812L38.1343 13.1959L37.898 11.6898L46.0191 11.3945C46.0561 10.6636 46.0561 9.96221 46.0634 9.26822V9.20916H38.3115V7.70307H47.9091ZM49.1642 16.8135V18.3491H36.9088V16.8135H49.1642Z" fill="white"/>
</svg>
