<svg width="115" height="42" viewBox="0 0 115 42" fill="none" xmlns="http://www.w3.org/2000/svg">
<rect width="115" height="42" rx="10" fill="#009D72"/>
<path d="M50.0742 14.8574V22.4727H48.6113V14.8574H50.0742ZM47.7363 15.0762V22.459H46.3008V21.9395H44.332V20.9004H46.3008V15.0762H47.7363ZM39.3281 19.5059C40.9824 19.5059 43.7031 19.4785 45.7266 19.1641L45.8223 20.1895C45.0635 20.3535 44.2363 20.4629 43.4023 20.5312V22.418H41.9395V20.6133C41.0234 20.6611 40.1689 20.6611 39.4785 20.6543L39.3281 19.5059ZM42.9102 22.8828V23.8262H48.5566V22.8828H50.0742V27.0664H41.4062V22.8828H42.9102ZM42.9102 25.877H48.5566V24.9883H42.9102V25.877ZM42.6094 15.2949C44.2227 15.2949 45.3164 15.9922 45.3164 17.127C45.3164 18.248 44.2227 18.9727 42.6094 18.9727C40.9824 18.9727 39.8887 18.248 39.8887 17.127C39.8887 15.9922 40.9824 15.2949 42.6094 15.2949ZM42.6094 16.3477C41.7754 16.3477 41.2695 16.6211 41.2695 17.127C41.2695 17.6465 41.7754 17.9062 42.6094 17.9062C43.416 17.9062 43.9492 17.6465 43.9629 17.127C43.9492 16.6211 43.416 16.3477 42.6094 16.3477ZM56.8289 15.5547C59.4402 15.5547 61.4363 16.9355 61.4363 19.041C61.4363 21.1738 59.4402 22.5547 56.8289 22.5547C54.2312 22.5547 52.2352 21.1738 52.2488 19.041C52.2352 16.9355 54.2312 15.5547 56.8289 15.5547ZM56.8289 16.7852C55.0379 16.7715 53.7117 17.6738 53.7117 19.041C53.7117 20.4355 55.0379 21.3105 56.8289 21.3105C58.6336 21.3105 59.9461 20.4355 59.9461 19.041C59.9461 17.6738 58.6336 16.7715 56.8289 16.7852ZM62.5027 24.4141V25.6582H51.2098V24.4141H62.5027ZM74.3023 24.5234V25.7812H63.0094V24.5234H67.8766V22.5137H64.3492V18.4668H71.4586V16.9355H64.3219V15.7051H72.9625V19.6699H65.8668V21.2695H73.2496V22.5137H69.3805V24.5234H74.3023ZM89.1242 24.4824V25.7266H77.8312V24.4824H82.6984V22.0762H79.0754V15.6777H80.593V17.7012H86.3215V15.6777H87.8391V22.0762H84.2023V24.4824H89.1242ZM80.593 20.8457H86.3215V18.918H80.593V20.8457ZM99.9531 14.8574V27.2168H98.4219V14.8574H99.9531ZM96.2617 16.1699C96.2617 19.8477 94.8398 22.9785 90.5059 25.0293L89.7129 23.8125C92.9463 22.2744 94.4502 20.1826 94.7168 17.373H90.3418V16.1699H96.2617Z" fill="white"/>
<path d="M15.4308 15.0693H13V26.0001H13.0019C13.1341 27.6612 14.4662 28.1056 15.4308 27.98V15.0693Z" fill="white"/>
<path d="M16.8105 15.0693H19.2414V26.0001H19.2395C19.1073 27.6612 17.7752 28.1056 16.8115 27.98V15.0693H16.8105Z" fill="white"/>
<path d="M23.0553 15.0197C22.0916 14.895 20.7567 15.3394 20.6245 16.9996L20.6283 25.9683C20.7604 27.6275 22.0916 28.0728 23.0563 27.9482V15.0197H23.0553Z" fill="white"/>
<path d="M24.3964 15.0197C25.3601 14.895 26.6941 15.3394 26.8263 16.9996L26.8235 25.9692C26.6913 27.6285 25.3601 28.0728 24.3955 27.9482V15.0197H24.3964Z" fill="white"/>
<path d="M30.7677 15.0693H28.3369V26.0001H28.3388C28.471 27.6612 29.8031 28.1056 30.7677 27.98V15.0693Z" fill="white"/>
<path d="M32.1475 15.0693H34.5783V26.0001H34.5764C34.4433 27.6612 33.1121 28.1056 32.1484 27.98V15.0693H32.1475Z" fill="white"/>
</svg>
